<svg width="62" height="61" viewBox="0 0 62 61" fill="none" xmlns="http://www.w3.org/2000/svg">
<path fill-rule="evenodd" clip-rule="evenodd" d="M31.0256 0C13.8693 0 0 13.9791 0 31.2732C0 45.0972 8.88652 56.799 21.2145 60.9407C22.7558 61.252 23.3204 60.2678 23.3204 59.4398C23.3204 58.7148 23.2696 56.2297 23.2696 53.6404C14.639 55.5047 12.8417 49.9124 12.8417 49.9124C11.4547 46.288 9.39965 45.3565 9.39965 45.3565C6.57487 43.4407 9.60542 43.4407 9.60542 43.4407C12.7388 43.6479 14.383 46.6508 14.383 46.6508C17.1564 51.4139 21.6254 50.0681 23.4232 49.2395C23.6798 47.2202 24.5022 45.8222 25.3754 45.0458C18.4919 44.3208 11.2496 41.6285 11.2496 29.616C11.2496 26.1988 12.4816 23.4029 14.4338 21.2285C14.1258 20.4521 13.0469 17.2413 14.7425 12.944C14.7425 12.944 17.3621 12.1154 23.2689 16.1541C25.7978 15.4696 28.4058 15.1213 31.0256 15.1184C33.6453 15.1184 36.3158 15.4812 38.7817 16.1541C44.6892 12.1154 47.3088 12.944 47.3088 12.944C49.0044 17.2413 47.9248 20.4521 47.6168 21.2285C49.6205 23.4029 50.8017 26.1988 50.8017 29.616C50.8017 41.6285 43.5594 44.2687 36.6244 45.0458C37.7548 46.0294 38.7303 47.8931 38.7303 50.8446C38.7303 55.0383 38.6795 58.4041 38.6795 59.4392C38.6795 60.2678 39.2447 61.252 40.7854 60.9413C53.1133 56.7984 61.9999 45.0972 61.9999 31.2732C62.0507 13.9791 48.1306 0 31.0256 0Z" fill="white"/>
</svg>
